<svg width="109" height="23" viewBox="0 0 109 23" fill="none" xmlns="http://www.w3.org/2000/svg">
<path d="M1.01233 2.30505H2.0246V2.44539H3.21734V2.41529H3.55815V2.52553H4.28981V3.02668H6.39467V3.16701H7.67758V2.98667H7.91812V3.20714H8.49947V2.95657H9.15099V3.10694H9.73228V2.9666H10.1032V3.10694H10.6744V2.88634H11.3159V2.62586H12.5287V2.52553H13.0098V2.69596H13.8217V3.04674H14.4131V2.94654H15.0244V3.13691H15.6058V2.85636H15.9867V3.13691H16.568V2.97663H16.7885V3.18708H17.8108V3.06681H18.1616V3.24727H19.6852V2.97663H20.1963V3.14695H21.359V3.26722H21.9503V2.97663H22.7221V2.6759H24.2656V2.44539H25.1377V2.55563H25.6188V2.76607H27.463V1.55333H25.6188V1.75386H25.1377V1.8641H24.2656V1.6435H22.7221V1.33286H21.9503V1.05219H21.359V1.16242H20.1963V1.33286H19.6852V1.06222H18.1616V1.25272H17.8108V1.12241H16.7885V1.34289H16.568V1.18249H15.9867V1.45313H15.6058V1.18249H15.0244V1.37299H14.4131V1.26263H13.8217V1.62356H13.0098V1.79387H12.5287V1.68364H11.3159V1.42303H10.6744V1.20255H10.1032V1.34289H9.73228V1.21259H9.15099V1.36296H8.49947V1.10235H7.91812V1.32282H7.67758V1.14236H6.39467V1.28269H4.28981V1.79387H3.55815V1.90411H3.21734V1.8641H2.0246V2.01435H1.01233V1.8641H0V2.44539H1.01233V2.30505Z" fill="white"/>
<path d="M0.932131 7.10609H3.1071V7.24643H4.28981V7.50704H4.80099V7.75761H6.08396V7.53701H6.51494V7.3667H7.1163V7.53701H8.34917V7.15614H9.51181H10.1533V7.3667H11.0153V7.21633H11.4763V7.3667H12.2982V7.66732H13.7215V7.15614H15.0545V7.3667H16.2773V7.21633H17.7106V7.44684H18.1316V7.75761H19.6852V7.21633H19.9858V7.44684H20.5572V7.24643H20.948V7.53701H22.8424V7.71748H23.574V7.59721H23.8948V7.76764H24.6265V7.39668H25.1377V7.53701H25.7891V7.75761H27.463V6.98582H28.0944V7.25646H29.3673V7.40671H30.2393V7.06596H32.0435V6.33431H30.2393V5.98353H29.3673V6.14381H28.0944V6.41445H27.463V5.64266H25.7891V5.86326H25.1377V6.0036H24.6265V5.63275H23.8948V5.80306H23.574V5.67276H22.8424V5.86326H20.948V6.15384H20.5572V5.9434H19.9858V6.18394H19.6852V5.64266H18.1316V5.9434H17.7106V6.18394H16.2773V6.02354H15.0545V6.2341H13.7215V5.72292H12.2982V6.02354H11.4763V6.18394H11.0153V6.02354H10.1533V6.2341H9.51181H8.34917V5.86326H7.1163V6.02354H6.51494V5.86326H6.08396V5.63275H4.80099V5.89324H4.28981V6.14381H3.1071V6.29418H0.932131V6.41445H0V6.98582H0.932131V7.10609Z" fill="white"/>
<path d="M36.3695 7.17617H37.1413V6.9858H37.472V7.1161H38.765V7.2464H40.3185V7.1161H40.7094V7.69739H41.6015V7.54702H42.1427V7.87785H42.694V7.40668H42.9947V7.75758H43.6963V7.54702H44.899V7.17617H45.2198V7.45684H45.9214V7.31651H46.2722V7.51704H46.9838V7.66729H47.7356V7.83772H48.2968V7.53698H48.5775V7.88789H49.4395V7.29644H49.9206V7.73752H50.9229V7.88789H52.5667V7.73752H52.8873V8.08829H53.5589V7.73752H53.8797V7.90783H54.7115V5.49239H53.8797V5.65267H53.5589V5.31192H52.8873V5.65267H52.5667V5.50242H50.9229V5.65267H49.9206V6.09374H49.4395V5.50242H48.5775V5.86323H48.2968V5.56249H47.7356V5.7229H46.9838V5.87326H46.2722V6.08371H45.9214V5.94337H45.2198V6.22404H44.899V5.84317H43.6963V5.64263H42.9947V5.99353H42.694V5.51245H42.1427V5.84317H41.6015V5.6928H40.7094V6.28412H40.3185V6.14378H38.765V6.28412H37.472V6.41442H37.1413V6.21401H36.3695V6.41442H36.0387V6.9858H36.3695V7.17617Z" fill="white"/>
<path d="M72.7812 7.7374H73.3425V7.24628H73.8837V7.56696H74.3949V7.82757H75.778V7.56696H76.2692V7.90771H77.3116V8.82987H78.3439V8.46905H78.6246V8.89006H79.2059V8.74973H79.9977V8.36885H80.2884V8.82987H81.4912V8.36885H81.9322V8.92004H82.734V8.52913H83.5358V8.29862H84.7286V7.75746H85.0894V8.59936H85.6908V8.08818H85.9814V8.37888H86.6831V7.55693H87.0539V7.77741H87.8658V8.17835H89.1587V7.88777H90.2713V7.6471H91.0331V5.75288H90.2713V5.5023H89.1587V5.22163H87.8658V5.62257H87.0539V5.84305H86.6831V5.0211H85.9814V5.3118H85.6908V4.80062H85.0894V5.64252H84.7286V5.10136H83.5358V4.87085H82.734V4.46991H81.9322V5.03113H81.4912V4.56008H80.2884V5.03113H79.9977V4.64022H79.2059V4.51004H78.6246V4.92089H78.3439V4.56008H77.3116V5.48224H76.2692V5.83302H75.778V5.57241H74.3949V5.83302H73.8837V6.1537H73.3425V5.65255H72.7812V5.99342H72.3602V7.40656H72.7812V7.7374Z" fill="white"/>
<path d="M18.2318 15.2946H17.5001V15.4249H16.2573V15.2546H15.3552V15.455H15.1347V15.2446H13.8918V14.8336H12.9798V14.7133H11.5164V14.8437H11.1055V14.9439H10.7747V14.7133H10.0631V15.0041H9.39153V14.7935H8.80015V15.0641H8.41927V15.3147H8.06849V15.0641H7.47711V15.3548H7.2466V15.1744H6.08396V15.455H5.64295V15.2346H4.0894V15.4149H3.31761V15.2045H1.25287V15.3147H0.972201V15.1744H0.360813V15.3147H0V16.2569H0.360813V16.3973H0.972201V16.2569H1.25287V16.3571H3.31761V16.1567H4.0894V16.3371H5.64295V16.1066H6.08396V16.3872H7.2466V16.2068H7.47711V16.4975H8.06849V16.2469H8.41927V16.4975H8.80015V16.7681H9.39153V16.5676H10.0631V16.8482H10.7747V16.6278H11.1055V16.7179H11.5164V16.8482H12.9798V16.738H13.8918V16.317H15.1347V16.1066H15.3552V16.307H16.2573V16.1367H17.5001V16.267H18.2318V16.1066H18.3922V15.455H18.2318V15.2946Z" fill="white"/>
<path d="M53.8088 14.5331H52.3354V14.8839H51.4534V14.5331H50.0201V14.8839H49.6593V14.7034H48.7372V14.5631H47.7449V14.7034H46.8929V14.9439H46.6223V14.6633H45.8806V14.9439H45.7704H45.2392V14.7837H44.6177V14.9439H44.0765V14.7837H42.2323V15.0843H41.0095V15.3348H40.1876V15.0843H38.9548V15.3348H38.1128V15.0843H37.0805V15.3649H36.3588V14.8136H35.7374V15.1845H35.2863V14.9239H34.5446V14.8437H33.5523V14.6534H32.6303V14.954H32.1692V14.6534H31.2571V14.954H29.8639V15.0542H29.3828V14.7235H28.0998V14.9239H27.2479V15.1644H26.5763V15.375H25.1832V15.1644H24.5517V15.4551H24.231V15.2447H22.6173V15.4551H22.4369V16.1066H22.6173V16.3171H24.231V16.1066H24.5517V16.3973H25.1832V16.1868H26.5763V16.3973H27.2479V16.6379H28.0998V16.8383H29.3828V16.5076H29.8639V16.6078H31.2571V16.9085H32.1692V16.6078H32.6303V16.9085H33.5523V16.718H34.5446V16.6379H35.2863V16.3873H35.7374V16.7481H36.3588V16.1968H37.0805V16.4775H38.1128V16.2269H38.9548V16.4775H40.1876V16.2269H41.0095V16.4775H42.2323V16.7782H44.0765V16.6278H44.6177V16.7782H45.2392V16.6278H45.7704H45.8806V16.8985H46.6223V16.6278H46.8929V16.8584H47.7449V16.9987H48.7372V16.8584H49.6593V16.6779H50.0201V17.0288H51.4534V16.6779H52.3354V17.0288H53.8088V16.7782H54.7109V14.7837H53.8088V14.5331Z" fill="white"/>
<path d="M90.7223 19.0836H89.8403V19.4044H89.1487V19.0635H88.7578V18.8631H87.074V19.254H86.6129V18.2718H85.2999V18.8029H84.8288V18.5524H83.4657V18.9232H82.8242V18.5524H81.451V18.2718H80.6091V18.9834H80.3385V18.2216H79.4565V18.4021H78.7449V18.1415H77.4418V19.5547H77.0409V19.1738H75.9584V18.9834H75.3871V19.4545H74.896V19.2039H73.573V19.5547H73.1019V19.2039H72.3602V21.439H73.1019V21.0982H73.573V21.439H74.896V21.1984H75.3871V21.6596H75.9584V21.4791H77.0409V21.0982H77.4418V22.5115H78.7449V22.2509H79.4565V22.4312H80.3385V21.6596H80.6091V22.3712H81.451V22.1005H82.8242V21.7297H83.4657V22.1005H84.8288V21.85H85.2999V22.3712H86.6129V21.3889H87.074V21.7798H88.7578V21.5893H89.1487V21.2486H89.8403V21.5592H90.7223V21.2486H91.0331V19.4044H90.7223V19.0836Z" fill="white"/>
<path d="M90.6321 14.1422H89.8403V14.553H88.5774V14.2424H86.633V13.8214H85.4101V14.1722H84.7587V13.8214H82.8543V14.0018H82.2829V13.4907H80.8998V14.1121H80.4287V13.641H78.6847V14.1121H78.0032V13.8214H76.7703V14.8939H76.0386V14.6633H74.7557V14.4328H73.2823V14.6633H72.3602V16.8985H73.2823V17.129H74.7557V16.8985H76.0386V16.6679H76.7703V17.7404H78.0032V17.4497H78.6847V17.9308H80.4287V17.4497H80.8998V18.0711H82.2829V17.5599H82.8543V17.7404H84.7587V17.3896H85.4101V17.7404H86.633V17.3194H88.5774V17.0087H89.8403V17.4196H90.6321V17.0087H91.0331V14.553H90.6321V14.1422Z" fill="white"/>
<path d="M53.8869 18.9633H52.7042V19.3543H52.4236V18.8832H51.2409V19.0836H50.5894V19.3643H49.547V19.5647H49.2263V19.3643H47.4723V19.655H47.1515V19.4145H45.2873V19.655H44.8663V19.3041H43.9743V19.5647H43.5433V19.234H42.7013V19.4545H41.689V19.234H40.5865V19.655H40.1455V19.2842H39.1532V19.655H38.1108V19.3643H35.9759V19.6048H34.7531V19.2541H33.4902V19.6048H32.969V19.2541H31.7161V19.705H31.3052V19.8955H30.8842V19.705H29.05V19.8955H26.9652V20.7575H29.05V20.9479H30.8842V20.7575H31.3052V20.9479H31.7161V21.399H32.969V21.0382H33.4902V21.399H34.7531V21.0382H35.9759V21.2787H38.1108V20.988H39.1532V21.3689H40.1455V20.988H40.5865V21.419H41.689V21.1884H42.7013V21.419H43.5433V21.0882H43.9743V21.3388H44.8663V20.988H45.2873V21.2386H47.1515V20.988H47.4723V21.2787H49.2263V21.0882H49.547V21.2787H50.5894V21.5693H51.2409V21.7698H52.4236V21.2887H52.7042V21.6795H53.8869V21.4691H54.7088V19.1738H53.8869V18.9633Z" fill="white"/>
<path d="M17.8409 19.6748H16.5379V19.7851H15.8062V19.6748H14.6836V19.7851H13.8317V19.324H13.1602V19.6147H12.0677V19.8552H11.6868V19.6448H10.9652V19.9655H10.4139V19.755H9.95282V19.3742H9.26123V19.5946H8.64984V19.4143H8.06849V19.1937H6.68532V19.4143H6.35454V19.4342H5.82335V19.1937H4.76092V19.4342H4.1896V19.8853H3.0871V19.9755H1.48338V20.0958H0.681556V20.1759H0V20.4666H0.681556V20.5568H1.48338V20.6771H3.0871V20.7674H4.1896V21.2183H4.76092V21.4489H5.82335V21.2183H6.35454V21.2284H6.68532V21.4489H8.06849V21.2284H8.64984V21.048H9.26123V21.2685H9.95282V20.8876H10.4139V20.6771H10.9652V21.0079H11.6868V20.7975H12.0677V21.028H13.1602V21.3186H13.8317V20.8575H14.6836V20.9778H15.8062V20.8575H16.5379V20.9778H17.8409V20.6371H18.3922V20.0056H17.8409V19.6748Z" fill="white"/>
<path d="M73.1019 2.70615H73.5329V2.97678H74.1644V2.66601H74.4951V3.12715H75.0564V2.95672H76.4596V3.18723H77.0108V2.90656H77.3116V3.91888H78.1234V4.09935H78.7148V4.31982H79.8373V3.88878H80.6693V4.27969H81.2105V3.5681H81.5312V4.13936H82.3331V3.61827H82.6538V4.17949H83.1951V4.04919H84.6384V3.70844H85.2297V3.96905H85.9414V4.18952H86.5427V2.91659H86.8936V3.23739H87.1341V3.5982H87.6753V3.4077H88.1364V3.23739H88.5974V3.64824H89.269V2.96675H89.9205V3.31753H91.0331V1.00229H89.9205V1.35307H89.269V0.661426H88.5974V1.0724H88.1364V0.901967H87.6753V0.721623H87.1341V1.0724H86.8936V1.39308H86.5427V0.130181H85.9414V0.340746H85.2297V0.611385H84.6384V0.270517H83.1951V0.140214H82.6538V0.691524H82.3331V0.180344H81.5312V0.751721H81.2105V0.0400086H80.6693V0.430918H79.8373V0H78.7148V0.210443H78.1234V0.390787H77.3116V1.40311H77.0108V1.12256H76.4596V1.36311H75.0564V1.18264H74.4951V1.64365H74.1644V1.33301H73.5329V1.60365H73.1019V1.05234H72.3602V3.25746H73.1019V2.70615Z" fill="white"/>
<path d="M36.4296 2.53566H38.5044V2.6459H39.0857V2.46555H39.7773V2.60589H40.6793V3.11707H41.2908V2.97673H41.842V3.20724H42.4434V2.88644H44.448V3.22731H45.0494V3.02678H46.0717V3.26732H46.7232V3.10704H47.8057V3.24737H48.387V2.84643H49.0686V3.19721H49.6901V2.71613H50.0509V2.88644H50.4718V3.1271H51.0832V2.88644H51.3037V3.40765H51.885V2.79627H52.3461V2.97673H52.9776V3.48791H53.5389V3.19721H54.04V3.39762H54.7115V0.91195H54.04V1.11248H53.5389V0.821777H52.9776V1.34299H52.3461V1.52333H51.885V0.901917H51.3037V1.43316H51.0832V1.18259H50.4718V1.43316H50.0509V1.59356H49.6901V1.12251H49.0686V1.46326H48.387V1.06232H47.8057V1.20265H46.7232V1.05229H46.0717V1.28279H45.0494V1.09242H44.448V1.43316H42.4434V1.10245H41.842V1.33296H41.2908V1.20265H40.6793V1.71383H39.7773V1.84414H39.0857V1.6737H38.5044V1.78394H36.4296V2.00454H36.0387V2.30515H36.4296V2.53566Z" fill="white"/>
<path d="M109 10.7745H108.87V10.3033H108.318V10.4135H108.068V10.3033H107.446V10.5739H106.905V10.0928H105.472V10.3234H104.72V9.63183H103.026V9.93245H102.635V10.2432H102.305V9.76213H100.831V9.52159H99.6185V9.93245H98.1451V9.52159H97.1227V9.93245H96.2808V9.27102H95.2585V9.52159H94.3163V9.38126H93.294V9.93245H92.8429V9.38126H90.4374V9.64186H88.8638V9.15063H87.8916V9.81218H87.4205V9.45136H86.6387V9.15063H85.8068V9.93245H85.5161V9.38126H83.9325V9.06046H83.1507V9.38126H82.409V9.69191H81.8076V9.18073H80.635V9.69191H80.2941V9.18073H79.3019V9.301H78.2495V9.69191H77.9388V9.15063H76.9665V9.76213H76.6458V9.18073H75.894V9.64186H75.443V9.301H74.6913V9.64186H72.4762V9.76213H71.4539V9.35116H69.8903V9.76213H69.3591V10.173H69.1185V9.89244H68.8579V9.42127H68.1463V9.81218H66.9936V9.5917H66.282V10.2031H65.8009V9.81218H65.3699V9.42127H64.6282V9.69191H64.0369V10.1129H63.6961V9.55157H62.6938V9.81218H61.3307V9.96254H60.6691V10.1129H59.7971V9.722H58.9352V10.1129H57.9028V9.81218H56.3693V10.2933H55.7879V9.722H55.0563V9.88241H53.4125V10.2933H52.9314V9.95251H52.1797V10.4637H51.458V9.91238H50.6963V10.143H50.0949V10.6741H49.714V10.3234H49.3331V10.0427H48.401V10.2332H47.8097V10.5539H47.539V10.0828H45.8451V10.3234H44.2816V10.5639H43.8906V10.1129H43.0387V10.5639H42.6578V10.173H41.6956V10.4838H40.6231V10.8044H39.8213V10.6442H38.388V10.8044H37.0951V10.6442H35.0203V10.8747H34.1283V10.7042H33.4266V10.9247H33.126V10.7042H32.0034V10.604H31.9433V10.2733H31.2316V10.604H30.6603V10.3334H28.1746V10.163H26.3103V10.4838H25.8392V10.163H24.3258V10.8345H23.8948V10.3334H22.2811V10.6641H20.8779V10.8345H20.3066V10.6641H18.4523V10.8345H17.9211V10.6641H16.9288V10.8044H16.548V10.6641H15.3452V10.8044H14.9743V10.6641H13.8618V10.1931H12.218V10.6641H10.474V10.7444H9.93275V10.4236H7.55731V10.3033H5.71312V10.133H4.28981V10.7444H1.35308V10.9548H0V11.5262H1.35308V11.7366H4.28981V12.348H5.71312V12.1776H7.55731V12.0573H9.93275V11.7366H10.474V11.8168H12.218V12.2878H13.8618V11.8168H14.9743V11.6764H15.3452V11.8168H16.548V11.6764H16.9288V11.8168H17.9211V11.6465H18.4523V11.8168H20.3066V11.6465H20.8779V11.8168H22.2811V12.1476H23.8948V11.6465H24.3258V12.3179H25.8392V11.9972H26.3103V12.3179H28.1746V12.1476H30.6603V11.877H31.2316V12.2077H31.9433V11.877H32.0034V11.7768H33.126V11.5562H33.4266V11.7768H34.1283V11.5963H35.0203V11.8368H37.0951V11.6764H38.388V11.8368H39.8213V11.6764H40.6231V11.9972H41.6956V12.3079H42.6578V11.917H43.0387V12.3681H43.8906V11.917H44.2816V12.1575H45.8451V12.3982H47.539V11.927H47.8097V12.2478H48.401V12.4382H49.3331V12.1575H49.714V11.8067H50.0949V12.338H50.6963V12.5685H51.458V12.0173H52.1797V12.5285H52.9314V12.1876H53.4125V12.5986H55.0563V12.759H55.7879V12.1876H56.3693V12.6687H57.9028V12.3681H58.9352V12.759H59.7971V12.3681H60.6691V12.5184H61.3307V12.6687H62.6938V12.9293H63.6961V12.3681H64.0369V12.789H64.6282V13.0596H65.3699V12.6687H65.8009V12.2779H66.282V12.8893H66.9936V12.6687H68.1463V13.0596H68.8579V12.5886H69.1185V12.3079H69.3591V12.7189H69.8903V13.1298H71.4539V12.7189H72.4762V12.8391H74.6913V13.1799H75.443V12.8391H75.894V13.3001H76.6458V12.7189H76.9665V13.3302H77.9388V12.789H78.2495V13.1799H79.3019V13.3001H80.2941V12.789H80.635V13.3001H81.8076V12.789H82.409V13.0997H83.1507V13.4204H83.9325V13.0997H85.5161V12.5484H85.8068V13.3302H86.6387V13.0296H87.4205V12.6687H87.8916V13.3302H88.8638V12.8391H90.4374V13.0997H92.8429V12.5484H93.294V13.0997H94.3163V12.9594H95.2585V13.21H96.2808V12.5484H97.1227V12.9594H98.1451V12.5484H99.6185V12.9594H100.831V12.7189H102.305V12.2277H102.635V12.5484H103.026V12.8492H104.72V12.1575H105.472V12.3881H106.905V11.9069H107.446V12.1776H108.068V12.0673H108.318V12.1776H108.87V11.7065H109V10.7745Z" fill="white"/>
</svg>
